<svg xmlns="http://www.w3.org/2000/svg" viewBox="0 0 48 48">
  <!-- 文档主体 -->
  <path d="M8 4h22l10 10v30a2 2 0 0 1-2 2H10a2 2 0 0 1-2-2V4z" fill="#FFF3E0"/>
  <!-- 折角 -->
  <path d="M30 4v8a2 2 0 0 0 2 2h8z" fill="#FFA726"/>
  <!-- 文档边框 -->
  <path d="M8 4h22l10 10v30a2 2 0 0 1-2 2H10a2 2 0 0 1-2-2V4z" fill="none" stroke="#F57C00" stroke-width="1.5"/>
  <!-- ZIP 拉链图标 -->
  <rect x="20" y="18" width="8" height="16" rx="1" fill="#F57C00"/>
  <rect x="22" y="20" width="4" height="2" fill="#FFFFFF"/>
  <rect x="22" y="24" width="4" height="2" fill="#FFFFFF"/>
  <rect x="22" y="28" width="4" height="2" fill="#FFFFFF"/>
  <rect x="23" y="32" width="2" height="2" fill="#FFFFFF"/>
</svg>
